<svg width="40" height="40" viewBox="0 0 40 40" fill="none" xmlns="http://www.w3.org/2000/svg">
<path d="M26.8862 12.1189C26.8862 15.6825 23.9974 18.5713 20.4338 18.5713C16.8703 18.5713 13.9814 15.6825 13.9814 12.1189C13.9814 8.55534 16.8703 5.6665 20.4338 5.6665C23.9974 5.6665 26.8862 8.55534 26.8862 12.1189Z" stroke="black" stroke-width="2"/>
<path d="M10 34.5464V32.6226C10 27.0997 14.4772 22.6226 20 22.6226H20.4333" stroke="black" stroke-width="2"/>
<path d="M28.4796 23.6536L29.8272 26.384L30.0598 26.8554L30.5801 26.931L33.5933 27.3689L31.4129 29.4942L31.0364 29.8612L31.1253 30.3793L31.64 33.3803L28.945 31.9635L28.4796 31.7188L28.0143 31.9635L25.3192 33.3803L25.8339 30.3793L25.9228 29.8612L25.5463 29.4942L23.366 27.3689L26.3792 26.931L26.8994 26.8554L27.1321 26.384L28.4796 23.6536Z" stroke="black" stroke-width="2"/>
</svg>
